<?xml version="1.0" standalone="no"?>
<!DOCTYPE svg PUBLIC "-//W3C//DTD SVG 20010904//EN"
 "http://www.w3.org/TR/2001/REC-SVG-20010904/DTD/svg10.dtd">
<svg version="1.0" xmlns="http://www.w3.org/2000/svg"
 width="200.000000pt" height="214.000000pt" viewBox="0 0 200.000000 214.000000"
 preserveAspectRatio="xMidYMid meet">
<metadata>
Created by potrace 1.14, written by Peter Selinger 2001-2017
</metadata>
<g transform="translate(0.000000,214.000000) scale(0.100000,-0.100000)"
fill="#000000" stroke="none">
<path d="M633 1113 c-10 -36 -10 -880 0 -915 7 -26 11 -28 61 -28 l53 0 7 52
c8 69 8 812 0 872 l-7 46 -53 0 c-50 0 -54 -2 -61 -27z"/>
<path d="M983 1113 c-10 -36 -10 -880 0 -915 7 -25 12 -28 52 -28 43 0 45 1
45 29 0 17 5 33 10 36 6 4 10 155 10 420 0 265 -4 416 -10 420 -5 3 -10 19
-10 36 0 28 -2 29 -45 29 -40 0 -45 -3 -52 -27z"/>
<path d="M1320 1111 c0 -17 -4 -33 -10 -36 -6 -4 -10 -155 -10 -420 0 -265 4
-416 10 -420 6 -3 10 -19 10 -36 0 -29 1 -29 55 -29 54 0 55 0 55 29 0 17 5
33 10 36 6 4 10 155 10 420 0 265 -4 416 -10 420 -5 3 -10 19 -10 36 0 29 -1
29 -55 29 -54 0 -55 0 -55 -29z"/>
</g>
</svg>
